<?xml version="1.0" encoding="utf-8"?>
<!DOCTYPE svg PUBLIC "-//W3C//DTD SVG 1.1//EN" "http://www.w3.org/Graphics/SVG/1.1/DTD/svg11.dtd">
<svg version="1.1" id="Layer_1" xmlns="http://www.w3.org/2000/svg" xmlns:xlink="http://www.w3.org/1999/xlink" x="0px" y="0px"
	 width="30px" height="30px" viewBox="0 0 30 30" enable-background="new 0 0 30 30" xml:space="preserve">
<g>
	<circle fill="#3667B1" cx="15" cy="15" r="15"/>
	<g enable-background="new    ">
		<path fill="#FFFFFF" d="M11.68,14.367l-0.646-0.5c0.981-1.08,1.878-1.851,2.687-2.305c0.807-0.461,1.498-0.687,2.066-0.687
			c0.313,0,0.554,0.069,0.723,0.207c0.164,0.136,0.246,0.323,0.246,0.56c0,0.285-0.313,1.492-0.954,3.626
			c-1.036,3.484-1.556,5.585-1.556,6.304c0,0.137,0.034,0.253,0.104,0.346c0.069,0.095,0.143,0.141,0.221,0.141
			c0.316,0,1.123-0.607,2.419-1.829l0.574,0.563c-1.348,1.267-2.329,2.075-2.947,2.429c-0.619,0.354-1.126,0.53-1.518,0.53
			c-0.345,0-0.617-0.106-0.817-0.321c-0.2-0.217-0.301-0.516-0.301-0.898c0-1.229,0.737-4.229,2.208-9.006
			c0.069-0.224,0.103-0.426,0.103-0.604c-0.003-0.198-0.092-0.296-0.269-0.296c-0.196,0-0.419,0.078-0.669,0.234
			C13.103,13.019,12.545,13.521,11.68,14.367z M17.475,4.612c0.303,0,0.555,0.101,0.754,0.302c0.192,0.202,0.295,0.461,0.295,0.773
			c0,0.431-0.149,0.813-0.451,1.141c-0.299,0.33-0.637,0.494-1.01,0.494c-0.295,0-0.539-0.104-0.737-0.312
			c-0.199-0.206-0.296-0.474-0.296-0.808c0-0.442,0.144-0.819,0.426-1.125C16.741,4.765,17.082,4.612,17.475,4.612z"/>
	</g>
</g>
</svg>
